<svg width="48" height="48" viewBox="0 0 48 48" fill="none" xmlns="http://www.w3.org/2000/svg">
<g id="arcticons:priceconverter">
<path id="Vector" d="M29.2822 44.9999C37.4107 44.9999 44.0003 38.4104 44.0003 30.2818C44.0003 22.1532 37.4107 15.5637 29.2822 15.5637C21.1536 15.5637 14.5641 22.1532 14.5641 30.2818C14.5641 38.4104 21.1536 44.9999 29.2822 44.9999Z" stroke="#FB8700" stroke-width="2.3" stroke-linecap="round" stroke-linejoin="round"/>
<path id="Vector_2" d="M24.7356 35.9067C25.1715 36.4569 25.7332 36.8945 26.3734 37.1825C27.0136 37.4706 27.7136 37.6008 28.4145 37.5622H30.623C31.5989 37.5622 32.5348 37.1745 33.2248 36.4845C33.9149 35.7945 34.3025 34.8586 34.3025 33.8827C34.3025 32.9068 33.9149 31.9709 33.2248 31.2809C32.5348 30.5908 31.5989 30.2032 30.623 30.2032H28.2306C27.2547 30.2032 26.3188 29.8155 25.6288 29.1255C24.9387 28.4354 24.551 27.4995 24.551 26.5237C24.551 25.5478 24.9387 24.6119 25.6288 23.9218C26.3188 23.2318 27.2547 22.8441 28.2306 22.8441H30.4391C31.1445 22.7641 31.8584 22.8755 32.5058 23.1669C33.1532 23.4582 33.7101 23.9186 34.118 24.4997M29.3343 20.8207V39.2177M15.1835 25.2665C14.6871 24.8013 14.2918 24.2387 14.0224 23.6139C13.753 22.9892 13.6152 22.3156 13.6178 21.6352V16.8514C13.6151 16.1984 13.7418 15.5512 13.9906 14.9474C14.2393 14.3436 14.6051 13.7949 15.067 13.3332C15.5288 12.8715 16.0775 12.5058 16.6814 12.2572C17.2853 12.0086 17.9324 11.882 18.5855 11.8848C19.3233 11.8985 20.0496 12.0697 20.7158 12.3869C21.382 12.7042 21.9727 13.1602 22.4484 13.7243M11.4104 17.2193H17.6657M11.4104 20.8983H17.6657" stroke="#FB8700" stroke-width="2.3" stroke-linecap="round" stroke-linejoin="round"/>
<path id="Vector_3" d="M14.6572 33.1143C12.0662 32.5635 9.67193 31.3235 7.72688 29.5254C5.78184 27.7272 4.35812 25.4374 3.60591 22.8976C2.8537 20.3578 2.80087 17.662 3.453 15.0946C4.10513 12.5273 5.43805 10.1835 7.31115 8.31049C9.18426 6.4375 11.5281 5.10474 14.0955 4.45277C16.6629 3.8008 19.3587 3.8538 21.8985 4.60617C24.4383 5.35855 26.728 6.78241 28.526 8.72757C30.3241 10.6727 31.5638 13.0671 32.1145 15.6581" stroke="#FB8700" stroke-width="2.3" stroke-linecap="round" stroke-linejoin="round"/>
</g>
</svg>
