<svg width="48" height="48" viewBox="0 0 48 48" fill="none" xmlns="http://www.w3.org/2000/svg">
<g id="carbon:security">
<g id="Group 20">
<path id="Vector" d="M20.9286 25.3218L17.3211 21.7143L15.3572 23.6782L20.9286 29.2496L32.0714 18.1068L30.1075 16.1428L20.9286 25.3218Z" fill="#FB8700"/>
<path id="Vector_2" d="M23.7143 44L15.112 39.4133C12.6596 38.1086 10.6089 36.1608 9.17972 33.7788C7.75058 31.3968 6.99706 28.6707 7.00001 25.8929V7.78571C7.00075 7.04712 7.29448 6.33899 7.81674 5.81673C8.339 5.29447 9.04713 5.00074 9.78572 5H37.6429C38.3815 5.00074 39.0896 5.29447 39.6118 5.81673C40.1341 6.33899 40.4278 7.04712 40.4286 7.78571V25.8929C40.4315 28.6707 39.678 31.3968 38.2489 33.7788C36.8197 36.1608 34.7689 38.1086 32.3166 39.4133L23.7143 44ZM9.78572 7.78571V25.8929C9.78341 28.1657 10.4001 30.3963 11.5696 32.3452C12.7392 34.2941 14.4174 35.8877 16.4241 36.9549L23.7143 40.8424L31.0045 36.9563C33.0114 35.889 34.6898 34.2951 35.8593 32.346C37.0288 30.3968 37.6454 28.166 37.6429 25.8929V7.78571H9.78572Z" fill="#FB8700"/>
</g>
</g>
</svg>
