<svg width="21" height="20" viewBox="0 0 21 20" fill="none" xmlns="http://www.w3.org/2000/svg">
<g id="001-instagram" clip-path="url(#clip0_3_330)">
<path id="Vector" d="M20.5496 5.88005C20.5027 4.81738 20.3309 4.0868 20.0847 3.45374C19.8308 2.78176 19.4401 2.18014 18.9282 1.68002C18.4281 1.1721 17.8225 0.777435 17.1583 0.527447C16.5216 0.281274 15.7948 0.109427 14.7321 0.0625732C13.6615 0.0117516 13.3216 0 10.6063 0C7.89088 0 7.551 0.0117516 6.48436 0.0586052C5.42168 0.105459 4.6911 0.277459 4.0582 0.523479C3.38607 0.777435 2.78445 1.16814 2.28432 1.68002C1.77641 2.18014 1.3819 2.78573 1.13176 3.44992C0.885583 4.0868 0.713736 4.81341 0.666882 5.87609C0.616061 6.9467 0.604309 7.28658 0.604309 10.002C0.604309 12.7173 0.616061 13.0572 0.662914 14.1239C0.709768 15.1865 0.881768 15.9171 1.12794 16.5502C1.3819 17.2221 1.77641 17.8238 2.28432 18.3239C2.78445 18.8318 3.39004 19.2265 4.05423 19.4765C4.6911 19.7226 5.41772 19.8945 6.48054 19.9413C7.54704 19.9883 7.88707 19.9999 10.6024 19.9999C13.3178 19.9999 13.6577 19.9883 14.7243 19.9413C15.787 19.8945 16.5176 19.7226 17.1505 19.4765C18.4946 18.9568 19.5573 17.8941 20.0769 16.5502C20.323 15.9133 20.495 15.1865 20.5418 14.1239C20.5887 13.0572 20.6004 12.7173 20.6004 10.002C20.6004 7.28658 20.5965 6.9467 20.5496 5.88005ZM18.7486 14.0457C18.7055 15.0225 18.5415 15.5499 18.4047 15.9015C18.0686 16.7728 17.3771 17.4643 16.5058 17.8004C16.1542 17.9372 15.6229 18.1012 14.65 18.1441C13.5951 18.1911 13.2787 18.2027 10.6102 18.2027C7.94171 18.2027 7.62136 18.1911 6.57028 18.1441C5.59353 18.1012 5.06608 17.9372 4.71445 17.8004C4.28087 17.6402 3.8862 17.3862 3.56585 17.0541C3.23376 16.7298 2.9798 16.3391 2.81955 15.9055C2.68281 15.5539 2.51874 15.0225 2.47586 14.0497C2.42885 12.9948 2.41725 12.6783 2.41725 10.0097C2.41725 7.34122 2.42885 7.02087 2.47586 5.96995C2.51874 4.99319 2.68281 4.46575 2.81955 4.11412C2.9798 3.68038 3.23376 3.28586 3.56982 2.96536C3.89398 2.63327 4.28468 2.37931 4.71842 2.21921C5.07005 2.08247 5.60147 1.9184 6.57425 1.87537C7.62914 1.82851 7.94567 1.81676 10.614 1.81676C13.2865 1.81676 13.6029 1.82851 14.654 1.87537C15.6307 1.9184 16.1582 2.08247 16.5098 2.21921C16.9434 2.37931 17.3381 2.63327 17.6584 2.96536C17.9905 3.28967 18.2445 3.68038 18.4047 4.11412C18.5415 4.46575 18.7055 4.99701 18.7486 5.96995C18.7954 7.02484 18.8072 7.34122 18.8072 10.0097C18.8072 12.6783 18.7954 12.9908 18.7486 14.0457Z" fill="white"/>
<path id="Vector_2" d="M10.6067 4.86426C7.77032 4.86426 5.46899 7.16543 5.46899 10.002C5.46899 12.8385 7.77032 15.1397 10.6067 15.1397C13.4433 15.1397 15.7444 12.8385 15.7444 10.002C15.7444 7.16543 13.4433 4.86426 10.6067 4.86426ZM10.6067 13.3347C8.7666 13.3347 7.274 11.8422 7.274 10.002C7.274 8.16172 8.7666 6.66927 10.6067 6.66927C12.447 6.66927 13.9394 8.16172 13.9394 10.002C13.9394 11.8422 12.447 13.3347 10.6067 13.3347Z" fill="white"/>
<path id="Vector_3" d="M17.1474 4.66134C17.1474 5.3237 16.6103 5.86076 15.9478 5.86076C15.2854 5.86076 14.7484 5.3237 14.7484 4.66134C14.7484 3.99882 15.2854 3.46191 15.9478 3.46191C16.6103 3.46191 17.1474 3.99882 17.1474 4.66134Z" fill="white"/>
</g>
<defs>
<clipPath id="clip0_3_330">
<rect width="20" height="20" fill="white" transform="translate(0.569641)"/>
</clipPath>
</defs>
</svg>
