<svg width="127" height="50" viewBox="0 0 127 50" fill="none" xmlns="http://www.w3.org/2000/svg">
<g id="Medipac" clip-path="url(#clip0_238_2336)">
<g id="Layer 2">
<g id="Layer 1">
<path id="Vector" d="M52.1242 39.9442H48.2551L47.1652 31.2256L43.5958 39.9442H42.07L38.6368 31.2256L37.4107 39.9442H33.5143L36.0483 24.791H39.8629L42.8601 32.869L46.0481 24.791H49.8899L52.1242 39.9442Z" fill="white"/>
<path id="Vector_2" d="M63.0504 39.9442H54.4948V24.791H62.9687V28.0779H58.4456V30.6406H62.669V33.9554H58.4456V36.7409H63.0504V39.9442Z" fill="white"/>
<path id="Vector_3" d="M79.0174 32.3678C79.0087 33.3259 78.8143 34.2726 78.4452 35.1533C78.0675 36.0529 77.5318 36.8743 76.8648 37.5767C76.1997 38.2744 75.4146 38.8409 74.5488 39.248C73.6927 39.6454 72.7643 39.8542 71.8241 39.8608H65.9659V24.7912H71.6606C72.5971 24.7778 73.5258 24.9677 74.3853 25.3483C75.2521 25.7317 76.0455 26.2693 76.7286 26.936C77.4181 27.6313 77.9727 28.4535 78.3634 29.3594C78.7916 30.3021 79.0147 31.3285 79.0174 32.3678ZM75.012 32.3678C74.9947 31.7752 74.8748 31.1905 74.6578 30.6408C74.4679 30.1344 74.1701 29.6776 73.7859 29.3037C73.4148 28.9044 72.9576 28.5992 72.4508 28.4124C71.8962 28.1864 71.3039 28.0729 70.7069 28.0781H69.8078V36.6575H70.8432C71.4102 36.6122 71.9642 36.4611 72.478 36.2118C72.9819 36.0189 73.4378 35.7145 73.8131 35.3204C74.1811 34.9278 74.4683 34.4637 74.6578 33.9555C74.846 33.4478 74.9474 32.9107 74.9575 32.3678H75.012Z" fill="white"/>
<path id="Vector_4" d="M85.2843 39.9442H81.4152V24.791H85.2843V39.9442Z" fill="white"/>
<path id="Vector_5" d="M99.6982 29.7771C99.787 31.1596 99.3363 32.5218 98.4448 33.5654C97.9434 34.0532 97.3468 34.427 96.694 34.6623C96.0412 34.8975 95.3472 34.9889 94.6574 34.9303H92.2324V39.9442H88.3905V24.791H94.5484C95.2789 24.7822 96.0059 24.8951 96.701 25.1253C97.308 25.3364 97.8646 25.6763 98.3342 26.1228C98.8037 26.5692 99.1757 27.1121 99.4257 27.7158C99.6323 28.3816 99.7245 29.079 99.6982 29.7771ZM95.6656 29.7771C95.6798 29.2795 95.515 28.7938 95.2023 28.4122C94.734 28.0288 94.1372 27.8487 93.5403 27.9108H92.2324V31.6991H93.5403C93.8361 31.7345 94.1358 31.7083 94.4215 31.6221C94.7071 31.536 94.9727 31.3916 95.2023 31.1977C95.5237 30.8102 95.6893 30.3124 95.6656 29.8049V29.7771Z" fill="white"/>
<path id="Vector_6" d="M114.902 39.9442H110.788L109.807 37.298H104.357L103.377 39.9442H99.3712L105.093 24.791H109.289L114.902 39.9442ZM108.771 34.3732L107.164 29.5542L105.556 34.3732H108.771Z" fill="white"/>
<path id="Vector_7" d="M126.809 39.5822C125.703 40.0569 124.521 40.3212 123.322 40.3621C122.306 40.3638 121.301 40.1577 120.365 39.7558C119.429 39.354 118.582 38.7645 117.872 38.0223C117.154 37.2923 116.584 36.4243 116.195 35.4682C115.806 34.5121 115.605 33.4868 115.605 32.4513C115.605 31.4158 115.806 30.3905 116.195 29.4344C116.584 28.4783 117.154 27.6103 117.872 26.8802C118.548 26.1343 119.351 25.5207 120.243 25.0697C121.225 24.6439 122.282 24.4259 123.349 24.429C124.539 24.4459 125.715 24.7014 126.809 25.1811V29.9165C126.414 29.4011 125.911 28.9824 125.338 28.6908C124.78 28.4393 124.177 28.3066 123.567 28.3009C123.017 28.3004 122.472 28.4043 121.959 28.6073C121.483 28.7955 121.055 29.0906 120.706 29.4708C120.348 29.8504 120.062 30.2942 119.861 30.78C119.462 31.8376 119.462 33.0092 119.861 34.0669C120.068 34.549 120.354 34.9917 120.706 35.3761C121.447 36.0851 122.416 36.4915 123.431 36.5181C124.081 36.5593 124.732 36.4547 125.338 36.2117C125.955 35.9286 126.49 35.4872 126.891 34.9304L126.809 39.5822Z" fill="white"/>
<path id="Vector_8" d="M36.2663 18.8858L33.0238 11.6713L32.5061 10.5292L32.2064 11.7827C29.7269 21.8663 27.2474 31.9499 25.0131 42.0891C24.1684 36.1003 23.3237 30.1114 22.4246 24.1504C21.3619 16.9081 20.3265 9.63788 19.0732 2.39554L18.7734 0L18.0923 2.31198L13.6237 16.7131L0 17.0474L13.9779 17.3816H14.2231V17.1309L18.3647 4.95822C19.2094 11.4206 20.1358 17.883 21.0895 24.4568C22.0976 31.727 23.1058 38.9694 24.1957 46.2396L24.6861 50.1393L25.558 46.351C28.0285 35.2646 30.4081 24.2061 32.6968 13.1755L35.7213 19.2758V19.4429H35.8848L47.7646 19.1643L36.2663 18.8858Z" fill="white"/>
<path id="Vector_9" d="M68.9904 44.7633C69.0755 44.8505 69.1414 44.9552 69.1837 45.0705C69.226 45.1858 69.2437 45.309 69.2356 45.4319V47.1867H68.6634V45.5154C68.6687 45.3724 68.6199 45.2327 68.5272 45.1255C68.4767 45.0986 68.4206 45.0846 68.3637 45.0846C68.3068 45.0846 68.2507 45.0986 68.2002 45.1255C68.1456 45.0962 68.0848 45.0809 68.0231 45.0809C67.9614 45.0809 67.9006 45.0962 67.846 45.1255C67.7532 45.2327 67.7045 45.3724 67.7097 45.5154V47.3539H67.1648V45.6826C67.1747 45.6111 67.1674 45.5384 67.1437 45.4704C67.1199 45.4025 67.0804 45.3415 67.0286 45.2926C66.9781 45.2657 66.922 45.2517 66.8651 45.2517C66.8082 45.2517 66.7521 45.2657 66.7016 45.2926C66.5967 45.2492 66.4795 45.2492 66.3746 45.2926C66.3544 45.341 66.344 45.3931 66.344 45.4458C66.344 45.4985 66.3544 45.5506 66.3746 45.599V47.326H65.8024V44.5684H66.4019V44.7633C66.4739 44.6678 66.5674 44.5914 66.6743 44.5405C66.7999 44.5117 66.9302 44.5117 67.0558 44.5405C67.1997 44.5112 67.3479 44.5112 67.4918 44.5405C67.6113 44.6204 67.7133 44.7247 67.7915 44.8469C67.8728 44.7177 67.9855 44.6121 68.1185 44.5405C68.2624 44.5112 68.4105 44.5112 68.5544 44.5405C68.7191 44.566 68.8717 44.644 68.9904 44.7633Z" fill="white"/>
<path id="Vector_10" d="M72.9957 45.8773V46.0445H71.3609C71.3609 46.0445 71.3609 46.2395 71.3609 46.2673C71.3986 46.3949 71.4799 46.5044 71.5899 46.5759C71.6999 46.6475 71.8313 46.6763 71.9603 46.6573C72.073 46.6586 72.1843 46.6313 72.2842 46.5778C72.3841 46.5243 72.4694 46.4464 72.5325 46.3509L72.8595 46.6016C72.749 46.7424 72.6094 46.8566 72.4508 46.9358C72.2628 47.0249 72.0585 47.0724 71.8513 47.0751C71.6091 47.0916 71.3688 47.0227 71.1701 46.8801C70.9801 46.7678 70.8352 46.5901 70.7614 46.3787C70.7107 46.112 70.7107 45.8377 70.7614 45.5709C70.745 45.4042 70.745 45.2363 70.7614 45.0695C70.8389 44.8379 70.981 44.6346 71.1701 44.4846C71.3705 44.3459 71.6096 44.2774 71.8513 44.2896C71.9976 44.2781 72.1446 44.2976 72.2831 44.347C72.4216 44.3964 72.5487 44.4746 72.6562 44.5767C72.7637 44.6787 72.8493 44.8024 72.9078 44.94C72.9662 45.0775 72.9962 45.226 72.9957 45.376C73.0398 45.54 73.0398 45.7132 72.9957 45.8773ZM71.4971 45.1253C71.418 45.2005 71.3613 45.297 71.3336 45.4038C71.3336 45.4038 71.3336 45.5431 71.3336 45.6266H72.3963C72.3851 45.5622 72.3851 45.4961 72.3963 45.4317C72.3491 45.3198 72.2847 45.2163 72.2055 45.1253C72.0891 45.0968 71.9678 45.0968 71.8513 45.1253C71.7355 45.0919 71.6129 45.0919 71.4971 45.1253Z" fill="white"/>
<path id="Vector_11" d="M76.1292 43.5655H76.7014V47.1866H76.1292V46.9638C76.0601 47.0509 75.9729 47.1211 75.8739 47.1693C75.7749 47.2175 75.6666 47.2425 75.557 47.2424C75.334 47.2412 75.1161 47.1734 74.9303 47.0474C74.7532 46.9032 74.6207 46.7097 74.5488 46.4903C74.519 46.2685 74.519 46.0435 74.5488 45.8217C74.5186 45.6093 74.5186 45.3935 74.5488 45.1811C74.6101 44.9638 74.7454 44.776 74.9303 44.6518C75.1101 44.5132 75.3321 44.4442 75.557 44.4568C75.6647 44.4513 75.7723 44.471 75.8715 44.5145C75.9706 44.5579 76.0588 44.624 76.1292 44.7075V43.5098V43.5655ZM76.1292 45.9053C76.1811 45.695 76.1811 45.4749 76.1292 45.2646C76.0844 45.1957 76.0237 45.1391 75.9524 45.1C75.8811 45.0609 75.8014 45.0404 75.7205 45.0404C75.6395 45.0404 75.5598 45.0609 75.4885 45.1C75.4172 45.1391 75.3565 45.1957 75.3117 45.2646C75.1898 45.454 75.1323 45.6792 75.1483 45.9053C75.1019 46.1068 75.1019 46.3166 75.1483 46.5181C75.1898 46.5982 75.253 46.6644 75.3303 46.7088C75.4076 46.7532 75.4957 46.7741 75.5842 46.7688C75.6676 46.766 75.7489 46.7415 75.8204 46.6976C75.8919 46.6538 75.9513 46.592 75.9929 46.5181C76.078 46.3261 76.1154 46.1156 76.1019 45.9053H76.1292Z" fill="white"/>
<path id="Vector_12" d="M78.3907 44.0669C78.3711 44.0232 78.361 43.9757 78.361 43.9276C78.361 43.8795 78.3711 43.832 78.3907 43.7883C78.3734 43.7489 78.3645 43.7062 78.3645 43.663C78.3645 43.6198 78.3734 43.577 78.3907 43.5376C78.4287 43.518 78.4707 43.5078 78.5133 43.5078C78.5559 43.5078 78.5979 43.518 78.6359 43.5376C78.6791 43.5192 78.7254 43.5098 78.7722 43.5098C78.8189 43.5098 78.8652 43.5192 78.9084 43.5376C78.9257 43.577 78.9346 43.6198 78.9346 43.663C78.9346 43.7062 78.9257 43.7489 78.9084 43.7883C78.928 43.832 78.9381 43.8795 78.9381 43.9276C78.9381 43.9757 78.928 44.0232 78.9084 44.0669C78.8652 44.0852 78.8189 44.0947 78.7722 44.0947C78.7254 44.0947 78.6791 44.0852 78.6359 44.0669C78.5979 44.0864 78.5559 44.0967 78.5133 44.0967C78.4707 44.0967 78.4287 44.0864 78.3907 44.0669ZM78.3907 47.2423V44.5683H79.0174V47.3538H78.4724L78.3907 47.2423Z" fill="white"/>
<path id="Vector_13" d="M80.9792 47.0752C80.792 46.935 80.6497 46.7411 80.5705 46.5181C80.5364 46.3059 80.5364 46.0895 80.5705 45.8774C80.5384 45.6744 80.5384 45.4675 80.5705 45.2646C80.6206 45.0346 80.7578 44.8344 80.9519 44.7075C81.1673 44.5804 81.4116 44.5134 81.6604 44.5134C81.9091 44.5134 82.1534 44.5804 82.3688 44.7075C82.5554 44.8298 82.6913 45.0183 82.7503 45.2367C82.7503 45.2367 82.7503 45.2367 82.7503 45.4039H82.2871C82.2557 45.2992 82.1879 45.21 82.0963 45.1532C81.9953 45.0995 81.8832 45.0714 81.7694 45.0714C81.6555 45.0714 81.5434 45.0995 81.4424 45.1532C81.3913 45.1877 81.348 45.2328 81.3151 45.2856C81.2822 45.3384 81.2606 45.3977 81.2517 45.4596C81.2331 45.6075 81.2331 45.7573 81.2517 45.9053C81.2334 46.0625 81.2334 46.2215 81.2517 46.3788C81.2726 46.4962 81.3299 46.6036 81.4151 46.6852C81.5299 46.7255 81.6546 46.7255 81.7694 46.6852C81.8742 46.7286 81.9915 46.7286 82.0963 46.6852C82.1466 46.6565 82.1899 46.6165 82.2229 46.5683C82.256 46.5201 82.2779 46.4648 82.2871 46.4066H82.7503C82.6926 46.6331 82.5572 46.8309 82.3688 46.9638C82.194 47.1439 81.9789 47.2778 81.7421 47.3537C81.4627 47.3617 81.1904 47.2623 80.9792 47.0752Z" fill="white"/>
<path id="Vector_14" d="M85.8292 44.5683C85.9783 44.6381 86.1091 44.7431 86.2107 44.8747C86.2963 45.0175 86.3433 45.1809 86.3469 45.3483V47.131H85.7747V46.9081C85.6765 47.0025 85.5608 47.0757 85.4345 47.1236C85.3081 47.1714 85.1737 47.1929 85.0391 47.1867C84.816 47.1855 84.5982 47.1177 84.4124 46.9917C84.3285 46.9155 84.2627 46.8206 84.2202 46.7144C84.1777 46.6082 84.1596 46.4934 84.1671 46.3789C84.1607 46.2578 84.182 46.1368 84.2293 46.0256C84.2766 45.9144 84.3486 45.816 84.4396 45.7382C84.6682 45.5691 84.9487 45.49 85.2298 45.5154H85.8292V45.3761C85.8511 45.3281 85.8625 45.2758 85.8625 45.2229C85.8625 45.17 85.8511 45.1177 85.8292 45.0697C85.7158 45.0217 85.5884 45.0217 85.475 45.0697H85.148C85.0806 45.1153 85.0321 45.1847 85.0118 45.2647H84.5214C84.5337 45.1571 84.5694 45.0537 84.626 44.9621C84.6826 44.8705 84.7586 44.793 84.8483 44.7354C85.0672 44.5924 85.3248 44.5241 85.584 44.5405C85.6664 44.5423 85.7485 44.5516 85.8292 44.5683ZM85.5568 46.6017C85.6126 46.5659 85.659 46.5167 85.6923 46.4585C85.7255 46.4003 85.7444 46.3348 85.7475 46.2675V46.0168H85.2843C85.1429 45.968 84.9897 45.968 84.8483 46.0168C84.7938 46.0448 84.749 46.0891 84.7197 46.1439C84.6905 46.1986 84.6784 46.2612 84.6848 46.3232C84.6657 46.3621 84.6557 46.405 84.6557 46.4485C84.6557 46.4921 84.6657 46.535 84.6848 46.5739C84.7915 46.6064 84.9051 46.6064 85.0118 46.5739C85.0912 46.6275 85.1811 46.6628 85.2753 46.6772C85.3694 46.6916 85.4654 46.6849 85.5568 46.6574V46.6017Z" fill="white"/>
<path id="Vector_15" d="M87.8728 47.3537V43.5654H88.445V47.3537H87.8728Z" fill="white"/>
<path id="Vector_16" d="M94.2486 45.8773V46.0445H92.641C92.641 46.0445 92.641 46.2395 92.641 46.2673C92.6788 46.3949 92.76 46.5044 92.87 46.5759C92.98 46.6475 93.1114 46.6763 93.2405 46.6573C93.3532 46.6586 93.4645 46.6313 93.5643 46.5778C93.6642 46.5243 93.7495 46.4464 93.8127 46.3509L94.1396 46.6016C94.0291 46.7424 93.8896 46.8566 93.7309 46.9358C93.5429 47.0249 93.3387 47.0724 93.1315 47.0751C92.8898 47.0873 92.6507 47.0188 92.4503 46.8801C92.2602 46.7678 92.1154 46.5901 92.0416 46.3787C91.9909 46.112 91.9909 45.8377 92.0416 45.5709C92.0107 45.4053 92.0107 45.2352 92.0416 45.0695C92.0998 44.8358 92.2344 44.6294 92.423 44.4846C92.6234 44.3459 92.8625 44.2774 93.1042 44.2896C93.2505 44.2781 93.3975 44.2976 93.536 44.347C93.6745 44.3964 93.8016 44.4746 93.9091 44.5767C94.0166 44.6787 94.1022 44.8024 94.1607 44.94C94.2191 45.0775 94.2491 45.226 94.2486 45.376C94.2927 45.54 94.2927 45.7132 94.2486 45.8773ZM92.7773 45.1253C92.6903 45.1988 92.6244 45.2951 92.5865 45.4038C92.5711 45.4772 92.5711 45.5532 92.5865 45.6266H93.6492C93.6492 45.6266 93.6492 45.4874 93.6492 45.4317C93.6121 45.3146 93.5464 45.2092 93.4584 45.1253C93.3424 45.0933 93.2202 45.0933 93.1042 45.1253C92.9978 45.091 92.8837 45.091 92.7773 45.1253Z" fill="white"/>
<path id="Vector_17" d="M97.3821 44.5682H98.0906V48.2172H97.5184V47.0194C97.4465 47.1103 97.3549 47.1827 97.2508 47.2311C97.1468 47.2795 97.0331 47.3023 96.9189 47.298C96.6959 47.2968 96.4781 47.229 96.2922 47.103C96.1151 46.9589 95.9826 46.7654 95.9108 46.5459C95.8785 46.3336 95.8785 46.1175 95.9108 45.9052C95.8809 45.6834 95.8809 45.4585 95.9108 45.2367C95.983 45.0251 96.1159 44.8406 96.2922 44.7075C96.472 44.5689 96.694 44.4998 96.9189 44.5125C97.0331 44.5081 97.1468 44.531 97.2508 44.5794C97.3549 44.6277 97.4465 44.7002 97.5184 44.791V44.5682H97.3821ZM97.3821 45.9052C97.3922 45.6921 97.3451 45.4802 97.2459 45.2924C97.2165 45.207 97.1607 45.1336 97.087 45.0834C97.0133 45.0331 96.9256 45.0087 96.8372 45.0139C96.7471 45.0175 96.6594 45.0451 96.583 45.0939C96.5065 45.1428 96.4439 45.2112 96.4012 45.2924C96.3088 45.4827 96.2621 45.6928 96.265 45.9052C96.2564 46.1306 96.3133 46.3535 96.4285 46.5459C96.475 46.6129 96.5361 46.668 96.6071 46.7067C96.678 46.7453 96.7568 46.7666 96.8372 46.7687C96.9218 46.772 97.0054 46.7501 97.078 46.7055C97.1506 46.661 97.2089 46.5959 97.2459 46.518C97.3451 46.3303 97.3922 46.1184 97.3821 45.9052Z" fill="white"/>
<path id="Vector_18" d="M101.169 44.5684H101.714V47.3539H101.169V47.131C101.088 47.2246 100.987 47.2983 100.874 47.3465C100.76 47.3947 100.638 47.4163 100.516 47.4096C100.275 47.4109 100.042 47.3216 99.8616 47.1589C99.77 47.0755 99.698 46.9721 99.6508 46.8564C99.6037 46.7406 99.5826 46.6156 99.5891 46.4904V44.5684H100.216V46.184C100.17 46.3097 100.17 46.4482 100.216 46.5739C100.258 46.628 100.312 46.6712 100.374 46.7003C100.435 46.7293 100.502 46.7432 100.57 46.7411C100.642 46.7434 100.713 46.7297 100.779 46.7008C100.845 46.6719 100.904 46.6286 100.951 46.5739C100.997 46.4482 100.997 46.3097 100.951 46.184V44.5684H101.169Z" fill="white"/>
<path id="Vector_19" d="M103.54 44.0669C103.52 44.0232 103.51 43.9757 103.51 43.9276C103.51 43.8795 103.52 43.832 103.54 43.7883C103.523 43.7489 103.514 43.7062 103.514 43.663C103.514 43.6198 103.523 43.577 103.54 43.5376C103.578 43.518 103.62 43.5078 103.663 43.5078C103.705 43.5078 103.747 43.518 103.785 43.5376C103.828 43.5192 103.875 43.5098 103.921 43.5098C103.968 43.5098 104.015 43.5192 104.058 43.5376C104.083 43.6192 104.083 43.7067 104.058 43.7883C104.089 43.8784 104.089 43.9767 104.058 44.0669C104.015 44.0852 103.968 44.0947 103.921 44.0947C103.875 44.0947 103.828 44.0852 103.785 44.0669C103.747 44.0864 103.705 44.0967 103.663 44.0967C103.62 44.0967 103.578 44.0864 103.54 44.0669ZM103.54 47.2423V44.5683H104.112V47.3538H103.54V47.2423Z" fill="white"/>
<path id="Vector_20" d="M107.9 45.9053C107.932 46.1176 107.932 46.3337 107.9 46.5459C107.828 46.7654 107.695 46.9589 107.518 47.103C107.332 47.2291 107.114 47.2969 106.891 47.298C106.778 47.2966 106.666 47.2711 106.563 47.2232C106.46 47.1752 106.368 47.1059 106.292 47.0195V48.2172H105.72V44.5682H106.265V44.7354C106.337 44.6445 106.428 44.572 106.532 44.5237C106.636 44.4753 106.75 44.4524 106.864 44.4568C107.089 44.4441 107.311 44.5132 107.491 44.6518C107.667 44.785 107.8 44.9694 107.872 45.181C107.916 45.4197 107.926 45.6638 107.9 45.9053ZM107.273 45.9053C107.325 45.7045 107.325 45.4933 107.273 45.2925C107.23 45.2112 107.168 45.1428 107.091 45.094C107.015 45.0451 106.927 45.0175 106.837 45.0139C106.748 45.0088 106.661 45.0332 106.587 45.0834C106.513 45.1337 106.458 45.207 106.428 45.2925C106.282 45.6873 106.282 46.1233 106.428 46.5181C106.465 46.5959 106.524 46.6611 106.596 46.7056C106.669 46.7501 106.752 46.7721 106.837 46.7688C106.917 46.7666 106.996 46.7454 107.067 46.7067C107.138 46.668 107.199 46.613 107.246 46.5459C107.314 46.3394 107.324 46.1171 107.273 45.9053Z" fill="white"/>
<path id="Vector_21" d="M112.859 44.7633C112.939 44.8528 113 44.9586 113.037 45.0738C113.075 45.189 113.088 45.311 113.077 45.4319V47.3539H112.504V45.6826C112.55 45.5568 112.55 45.4183 112.504 45.2926C112.45 45.2633 112.389 45.248 112.327 45.248C112.266 45.248 112.205 45.2633 112.15 45.2926C112.1 45.2657 112.044 45.2517 111.987 45.2517C111.93 45.2517 111.874 45.2657 111.823 45.2926C111.771 45.3415 111.732 45.4025 111.708 45.4704C111.684 45.5384 111.677 45.6111 111.687 45.6826V47.3539H111.142V45.6826C111.188 45.5568 111.188 45.4183 111.142 45.2926C111.092 45.2657 111.035 45.2517 110.979 45.2517C110.922 45.2517 110.866 45.2657 110.815 45.2926C110.71 45.2492 110.593 45.2492 110.488 45.2926C110.403 45.3742 110.346 45.4816 110.325 45.599V47.3539H109.752V44.5684H110.352V44.7633C110.424 44.6678 110.517 44.5914 110.624 44.5405C110.75 44.5117 110.88 44.5117 111.006 44.5405C111.15 44.5112 111.298 44.5112 111.442 44.5405C111.561 44.6204 111.663 44.7247 111.741 44.8469C111.718 44.7561 111.709 44.6621 111.714 44.5684C111.858 44.5391 112.006 44.5391 112.15 44.5684C112.275 44.5399 112.404 44.5427 112.528 44.5767C112.651 44.6107 112.765 44.6747 112.859 44.7633Z" fill="white"/>
<path id="Vector_22" d="M116.864 45.8773V46.0445H115.256C115.233 46.1169 115.233 46.1949 115.256 46.2673C115.294 46.3949 115.375 46.5044 115.485 46.5759C115.595 46.6475 115.727 46.6763 115.856 46.6573C115.965 46.6591 116.073 46.6318 116.168 46.5781C116.264 46.5243 116.344 46.446 116.401 46.3509L116.728 46.6016C116.612 46.7489 116.462 46.864 116.292 46.9358C116.115 47.028 115.918 47.0757 115.72 47.0751C115.477 47.0916 115.237 47.0227 115.038 46.8801C114.84 46.771 114.685 46.5933 114.602 46.3787C114.553 46.1118 114.553 45.8378 114.602 45.5709C114.586 45.4042 114.586 45.2363 114.602 45.0695C114.68 44.8379 114.822 44.6346 115.011 44.4846C115.212 44.3459 115.451 44.2774 115.692 44.2896C115.839 44.2781 115.986 44.2976 116.124 44.347C116.263 44.3964 116.39 44.4746 116.497 44.5767C116.605 44.6787 116.69 44.8024 116.749 44.94C116.807 45.0775 116.837 45.226 116.837 45.376C116.89 45.5375 116.899 45.7107 116.864 45.8773ZM115.365 45.1253C115.286 45.2005 115.23 45.297 115.202 45.4038C115.186 45.4772 115.186 45.5532 115.202 45.6266H116.265C116.28 45.5626 116.28 45.4957 116.265 45.4317C116.238 45.3165 116.181 45.2108 116.101 45.1253C115.985 45.0968 115.863 45.0968 115.747 45.1253C115.623 45.0806 115.489 45.0806 115.365 45.1253Z" fill="white"/>
<path id="Vector_23" d="M120.27 44.7631C120.359 44.8541 120.43 44.9628 120.476 45.0826C120.523 45.2023 120.546 45.3306 120.542 45.4595V47.1865H119.888V45.5152C119.889 45.373 119.841 45.2351 119.752 45.1253C119.692 45.0976 119.627 45.0832 119.561 45.0832C119.496 45.0832 119.431 45.0976 119.371 45.1253C119.257 45.0773 119.13 45.0773 119.017 45.1253C118.928 45.2351 118.88 45.373 118.88 45.5152V47.3537H118.308V44.5681H118.88V44.7631C118.958 44.6642 119.058 44.5868 119.172 44.5381C119.287 44.4894 119.411 44.471 119.534 44.4846C119.67 44.469 119.807 44.4861 119.934 44.5345C120.062 44.5829 120.177 44.6612 120.27 44.7631Z" fill="white"/>
<path id="Vector_24" d="M123.485 45.0139H122.886V46.2952C122.876 46.3449 122.878 46.3964 122.892 46.4451C122.906 46.4937 122.932 46.538 122.967 46.5739C123.002 46.6098 123.046 46.6363 123.093 46.6508C123.141 46.6654 123.191 46.6676 123.24 46.6573H123.431V47.0473H123.185C122.964 47.0636 122.744 47.0048 122.559 46.8802C122.422 46.8802 122.368 46.6295 122.368 46.3509V44.8467H121.959V44.5682H122.368V43.8997H122.913V44.5682H123.512V44.9582L123.485 45.0139Z" fill="white"/>
<path id="Vector_25" d="M125.338 47.1865C125.187 47.1337 125.054 47.0369 124.956 46.908C124.919 46.7809 124.919 46.6451 124.956 46.518H125.338C125.341 46.5675 125.357 46.6151 125.387 46.6548C125.416 46.6944 125.456 46.7244 125.501 46.7408C125.615 46.786 125.742 46.786 125.856 46.7408C125.962 46.7734 126.076 46.7734 126.183 46.7408C126.198 46.7057 126.205 46.6678 126.205 46.6294C126.205 46.5911 126.198 46.5531 126.183 46.518C126.197 46.4876 126.205 46.4543 126.205 46.4205C126.205 46.3867 126.197 46.3534 126.183 46.323H125.828H125.638L125.338 45.9609C125.216 45.9102 125.111 45.8228 125.038 45.7102C124.945 45.6029 124.897 45.4633 124.902 45.3202C124.901 45.205 124.927 45.0912 124.98 44.9891C125.032 44.887 125.108 44.7998 125.202 44.7353C125.418 44.5842 125.675 44.5063 125.937 44.5124C126.116 44.4653 126.304 44.4653 126.482 44.5124C126.633 44.5652 126.766 44.6621 126.864 44.791C126.952 44.9115 127 45.0581 127 45.2088H126.428C126.443 45.1737 126.451 45.1357 126.451 45.0974C126.451 45.059 126.443 45.0211 126.428 44.986C126.314 44.938 126.187 44.938 126.074 44.986C125.967 44.9535 125.853 44.9535 125.747 44.986C125.708 45.0088 125.675 45.0411 125.651 45.0799C125.627 45.1188 125.613 45.1631 125.61 45.2088C125.61 45.2088 125.61 45.2088 125.747 45.4038L126.155 45.5431L126.619 45.7102C126.736 45.7689 126.839 45.8547 126.918 45.9609C126.975 46.0366 127.016 46.1234 127.038 46.2158C127.061 46.3083 127.064 46.4045 127.049 46.4985C127.034 46.5925 127 46.6823 126.949 46.7623C126.899 46.8423 126.832 46.9109 126.755 46.9637C126.527 47.1089 126.26 47.1771 125.992 47.1587C125.777 47.2088 125.556 47.2182 125.338 47.1865Z" fill="white"/>
</g>
</g>
</g>
<defs>
<clipPath id="clip0_238_2336">
<rect width="127" height="50" fill="white"/>
</clipPath>
</defs>
</svg>
