<svg width="48" height="48" viewBox="0 0 48 48" fill="none" xmlns="http://www.w3.org/2000/svg">
<g id="system-uicons:support">
<g id="Group">
<path id="Vector" d="M24 42.2858C34.0989 42.2858 42.2857 34.099 42.2857 24.0001C42.2857 13.9011 34.0989 5.71436 24 5.71436C13.9011 5.71436 5.71428 13.9011 5.71428 24.0001C5.71428 34.099 13.9011 42.2858 24 42.2858Z" stroke="#FB8700" stroke-width="2.3" stroke-linecap="round" stroke-linejoin="round"/>
<path id="Vector_2" d="M24 33.1429C29.0495 33.1429 33.1429 29.0495 33.1429 24C33.1429 18.9506 29.0495 14.8572 24 14.8572C18.9505 14.8572 14.8571 18.9506 14.8571 24C14.8571 29.0495 18.9505 33.1429 24 33.1429Z" stroke="#FB8700" stroke-width="2.3" stroke-linecap="round" stroke-linejoin="round"/>
<path id="Vector_3" d="M30.8571 17.143L36.5714 11.4287M30.8571 30.8573L36.5714 36.5716M17.1429 30.8573L11.4286 36.5716M17.1429 17.143L11.4286 11.4287" stroke="#FB8700" stroke-width="2.3" stroke-linecap="round" stroke-linejoin="round"/>
</g>
</g>
</svg>
