<svg width="21" height="20" viewBox="0 0 21 20" fill="none" xmlns="http://www.w3.org/2000/svg">
<g id="u:youtube">
<path id="Vector" d="M19.9515 8.0919C19.9927 6.89911 19.7318 5.71524 19.1931 4.65023C18.8276 4.21323 18.3204 3.91832 17.7598 3.8169C15.4411 3.6065 13.1127 3.52027 10.7848 3.55856C8.46533 3.51853 6.14538 3.60198 3.83479 3.80856C3.37798 3.89166 2.95522 4.10593 2.61813 4.42523C1.86813 5.1169 1.78479 6.30023 1.70146 7.30023C1.58055 9.0982 1.58055 10.9023 1.70146 12.7002C1.72557 13.2631 1.80937 13.8218 1.95146 14.3669C2.05194 14.7878 2.25523 15.1772 2.54313 15.5002C2.88252 15.8364 3.31511 16.0629 3.78479 16.1502C5.58139 16.372 7.39164 16.4639 9.20146 16.4252C12.1181 16.4669 14.6765 16.4252 17.7015 16.1919C18.1827 16.1099 18.6275 15.8832 18.9765 15.5419C19.2098 15.3085 19.384 15.0228 19.4848 14.7086C19.7828 13.7941 19.9292 12.837 19.9181 11.8752C19.9515 11.4086 19.9515 8.5919 19.9515 8.0919ZM8.90146 12.3752V7.2169L13.8348 9.80856C12.4515 10.5752 10.6265 11.4419 8.90146 12.3752Z" fill="white"/>
</g>
</svg>
