<svg width="118" height="118" viewBox="0 0 118 118" fill="none" xmlns="http://www.w3.org/2000/svg">
<g id="Inner Plugin Iframe" clip-path="url(#clip0_398_88)">
<path id="Vector" d="M32.1818 86.3929V90.6071C32.1818 91.1778 31.9164 91.6717 31.3857 92.0887C30.8549 92.5058 30.2263 92.7143 29.5 92.7143H24.1364C23.41 92.7143 22.7815 92.5058 22.2507 92.0887C21.7199 91.6717 21.4545 91.1778 21.4545 90.6071V86.3929C21.4545 85.8222 21.7199 85.3283 22.2507 84.9113C22.7815 84.4942 23.41 84.2857 24.1364 84.2857H29.5C30.2263 84.2857 30.8549 84.4942 31.3857 84.9113C31.9164 85.3283 32.1818 85.8222 32.1818 86.3929ZM32.1818 69.5357V73.75C32.1818 74.3207 31.9164 74.8146 31.3857 75.2316C30.8549 75.6486 30.2263 75.8571 29.5 75.8571H24.1364C23.41 75.8571 22.7815 75.6486 22.2507 75.2316C21.7199 74.8146 21.4545 74.3207 21.4545 73.75V69.5357C21.4545 68.965 21.7199 68.4712 22.2507 68.0541C22.7815 67.6371 23.41 67.4286 24.1364 67.4286H29.5C30.2263 67.4286 30.8549 67.6371 31.3857 68.0541C31.9164 68.4712 32.1818 68.965 32.1818 69.5357ZM53.6364 69.5357V73.75C53.6364 74.3207 53.371 74.8146 52.8402 75.2316C52.3094 75.6486 51.6809 75.8571 50.9545 75.8571H45.5909C44.8646 75.8571 44.236 75.6486 43.7053 75.2316C43.1745 74.8146 42.9091 74.3207 42.9091 73.75V69.5357C42.9091 68.965 43.1745 68.4712 43.7053 68.0541C44.236 67.6371 44.8646 67.4286 45.5909 67.4286H50.9545C51.6809 67.4286 52.3094 67.6371 52.8402 68.0541C53.371 68.4712 53.6364 68.965 53.6364 69.5357ZM32.1818 52.6786V56.8929C32.1818 57.4635 31.9164 57.9574 31.3857 58.3744C30.8549 58.7915 30.2263 59 29.5 59H24.1364C23.41 59 22.7815 58.7915 22.2507 58.3744C21.7199 57.9574 21.4545 57.4635 21.4545 56.8929V52.6786C21.4545 52.1079 21.7199 51.614 22.2507 51.197C22.7815 50.7799 23.41 50.5714 24.1364 50.5714H29.5C30.2263 50.5714 30.8549 50.7799 31.3857 51.197C31.9164 51.614 32.1818 52.1079 32.1818 52.6786ZM96.5455 86.3929V90.6071C96.5455 91.1778 96.2801 91.6717 95.7493 92.0887C95.2185 92.5058 94.59 92.7143 93.8636 92.7143H88.5C87.7737 92.7143 87.1451 92.5058 86.6143 92.0887C86.0836 91.6717 85.8182 91.1778 85.8182 90.6071V86.3929C85.8182 85.8222 86.0836 85.3283 86.6143 84.9113C87.1451 84.4942 87.7737 84.2857 88.5 84.2857H93.8636C94.59 84.2857 95.2185 84.4942 95.7493 84.9113C96.2801 85.3283 96.5455 85.8222 96.5455 86.3929ZM75.0909 69.5357V73.75C75.0909 74.3207 74.8255 74.8146 74.2947 75.2316C73.764 75.6486 73.1354 75.8571 72.4091 75.8571H67.0455C66.3191 75.8571 65.6906 75.6486 65.1598 75.2316C64.629 74.8146 64.3636 74.3207 64.3636 73.75V69.5357C64.3636 68.965 64.629 68.4712 65.1598 68.0541C65.6906 67.6371 66.3191 67.4286 67.0455 67.4286H72.4091C73.1354 67.4286 73.764 67.6371 74.2947 68.0541C74.8255 68.4712 75.0909 68.965 75.0909 69.5357ZM53.6364 52.6786V56.8929C53.6364 57.4635 53.371 57.9574 52.8402 58.3744C52.3094 58.7915 51.6809 59 50.9545 59H45.5909C44.8646 59 44.236 58.7915 43.7053 58.3744C43.1745 57.9574 42.9091 57.4635 42.9091 56.8929V52.6786C42.9091 52.1079 43.1745 51.614 43.7053 51.197C44.236 50.7799 44.8646 50.5714 45.5909 50.5714H50.9545C51.6809 50.5714 52.3094 50.7799 52.8402 51.197C53.371 51.614 53.6364 52.1079 53.6364 52.6786ZM96.5455 69.5357V73.75C96.5455 74.3207 96.2801 74.8146 95.7493 75.2316C95.2185 75.6486 94.59 75.8571 93.8636 75.8571H88.5C87.7737 75.8571 87.1451 75.6486 86.6143 75.2316C86.0836 74.8146 85.8182 74.3207 85.8182 73.75V69.5357C85.8182 68.965 86.0836 68.4712 86.6143 68.0541C87.1451 67.6371 87.7737 67.4286 88.5 67.4286H93.8636C94.59 67.4286 95.2185 67.6371 95.7493 68.0541C96.2801 68.4712 96.5455 68.965 96.5455 69.5357ZM75.0909 52.6786V56.8929C75.0909 57.4635 74.8255 57.9574 74.2947 58.3744C73.764 58.7915 73.1354 59 72.4091 59H67.0455C66.3191 59 65.6906 58.7915 65.1598 58.3744C64.629 57.9574 64.3636 57.4635 64.3636 56.8929V52.6786C64.3636 52.1079 64.629 51.614 65.1598 51.197C65.6906 50.7799 66.3191 50.5714 67.0455 50.5714H72.4091C73.1354 50.5714 73.764 50.7799 74.2947 51.197C74.8255 51.614 75.0909 52.1079 75.0909 52.6786ZM96.5455 52.6786V56.8929C96.5455 57.4635 96.2801 57.9574 95.7493 58.3744C95.2185 58.7915 94.59 59 93.8636 59H88.5C87.7737 59 87.1451 58.7915 86.6143 58.3744C86.0836 57.9574 85.8182 57.4635 85.8182 56.8929V52.6786C85.8182 52.1079 86.0836 51.614 86.6143 51.197C87.1451 50.7799 87.7737 50.5714 88.5 50.5714H93.8636C94.59 50.5714 95.2185 50.7799 95.7493 51.197C96.2801 51.614 96.5455 52.1079 96.5455 52.6786ZM75.0909 109.571H107.273V33.7143H85.8182V35.8214C85.8182 37.5774 85.036 39.0699 83.4716 40.2991C81.9072 41.5283 80.0076 42.1429 77.7727 42.1429H40.2273C37.9924 42.1429 36.0928 41.5283 34.5284 40.2991C32.964 39.0699 32.1818 37.5774 32.1818 35.8214V33.7143H10.7273V109.571H42.9091V94.8214C42.9091 94.2507 43.1745 93.7569 43.7053 93.3398C44.236 92.9228 44.8646 92.7143 45.5909 92.7143H72.4091C73.1354 92.7143 73.764 92.9228 74.2947 93.3398C74.8255 93.7569 75.0909 94.2507 75.0909 94.8214V109.571ZM75.0909 31.6071V10.5357C75.0909 9.96503 74.8255 9.47117 74.2947 9.05413C73.764 8.63709 73.1354 8.42857 72.4091 8.42857H67.0455C66.3191 8.42857 65.6906 8.63709 65.1598 9.05413C64.629 9.47117 64.3636 9.96503 64.3636 10.5357V16.8571H53.6364V10.5357C53.6364 9.96503 53.371 9.47117 52.8402 9.05413C52.3094 8.63709 51.6809 8.42857 50.9545 8.42857H45.5909C44.8646 8.42857 44.236 8.63709 43.7053 9.05413C43.1745 9.47117 42.9091 9.96503 42.9091 10.5357V31.6071C42.9091 32.1778 43.1745 32.6717 43.7053 33.0887C44.236 33.5058 44.8646 33.7143 45.5909 33.7143H50.9545C51.6809 33.7143 52.3094 33.5058 52.8402 33.0887C53.371 32.6717 53.6364 32.1778 53.6364 31.6071V25.2857H64.3636V31.6071C64.3636 32.1778 64.629 32.6717 65.1598 33.0887C65.6906 33.5058 66.3191 33.7143 67.0455 33.7143H72.4091C73.1354 33.7143 73.764 33.5058 74.2947 33.0887C74.8255 32.6717 75.0909 32.1778 75.0909 31.6071ZM118 29.5V113.786C118 114.927 117.469 115.915 116.408 116.749C115.346 117.583 114.089 118 112.636 118H5.36364C3.91098 118 2.65388 117.583 1.59233 116.749C0.530777 115.915 0 114.927 0 113.786V29.5C0 28.3586 0.530777 27.3709 1.59233 26.5368C2.65388 25.7028 3.91098 25.2857 5.36364 25.2857H32.1818V6.32143C32.1818 4.56548 32.964 3.07292 34.5284 1.84375C36.0928 0.614583 37.9924 0 40.2273 0H77.7727C80.0076 0 81.9072 0.614583 83.4716 1.84375C85.036 3.07292 85.8182 4.56548 85.8182 6.32143V25.2857H112.636C114.089 25.2857 115.346 25.7028 116.408 26.5368C117.469 27.3709 118 28.3586 118 29.5Z" fill="white" fill-opacity="0.05"/>
</g>
<defs>
<clipPath id="clip0_398_88">
<rect width="118" height="118" fill="white"/>
</clipPath>
</defs>
</svg>
