<svg width="118" height="118" viewBox="0 0 118 118" fill="none" xmlns="http://www.w3.org/2000/svg">
<g id="healthicons:ambulatory-clinic-outline">
<g id="Group">
<path id="Vector" fill-rule="evenodd" clip-rule="evenodd" d="M30.9178 59.3152V81.233H52.8356V59.3152H30.9178ZM47.3561 75.7535V64.7946H36.3972V75.7535H47.3561Z" fill="white" fill-opacity="0.05"/>
<path id="Vector_2" fill-rule="evenodd" clip-rule="evenodd" d="M44.6163 10C41.2239 9.99997 37.9145 11.0492 35.1417 13.0038C32.369 14.9584 30.2687 17.7227 29.1286 20.9178H8.99985V27.7151L19.9588 36.0164V103.151H11.7396C11.013 103.151 10.3161 103.439 9.8023 103.953C9.2885 104.467 8.99985 105.164 8.99985 105.89C8.99985 106.617 9.2885 107.314 9.8023 107.828C10.3161 108.341 11.013 108.63 11.7396 108.63H19.9588V108.671H96.6711V108.63H104.89C105.617 108.63 106.314 108.341 106.828 107.828C107.341 107.314 107.63 106.617 107.63 105.89C107.63 105.164 107.341 104.467 106.828 103.953C106.314 103.439 105.617 103.151 104.89 103.151H96.6711V36.1151L109 27.8137V20.9151H60.104C58.9635 17.7205 56.8629 14.9567 54.0902 13.0026C51.3175 11.0486 48.0084 9.99976 44.6163 10ZM60.1204 31.9178C60.7411 30.1577 61.0571 28.3047 61.0546 26.4384V26.3973H101.293L93.0957 31.9178H60.1204ZM56.8683 37.3973C55.3282 39.1231 53.4402 40.5036 51.3286 41.448C49.217 42.3923 46.9295 42.8792 44.6163 42.8767C42.3031 42.8792 40.0156 42.3923 37.9039 41.448C35.7923 40.5036 33.9044 39.1231 32.3642 37.3973H25.4382V103.151H58.3149V59.3151H85.7122V103.151H91.1916V37.3973H56.8683ZM28.1779 26.4384C28.1779 28.3589 28.5067 30.2027 29.1122 31.9178H23.619L16.3314 26.3973H28.1779V26.4384ZM47.356 23.6986V18.2192H41.8766V23.6986H36.3971V29.1781H41.8766V34.6575H47.356V29.1781H52.8355V23.6986H47.356ZM80.2327 64.7945V103.151H63.7944V64.7945H80.2327Z" fill="white" fill-opacity="0.05"/>
</g>
</g>
</svg>
