<svg width="120" height="109" viewBox="0 0 120 109" fill="none" xmlns="http://www.w3.org/2000/svg">
<g id="Inner Plugin Iframe">
<path id="Vector" d="M72.0923 100.708H49.0154C46.9759 100.706 45.0205 99.8945 43.5784 98.4523C42.1362 97.0102 41.3251 95.0548 41.3231 93.0153V73.7845H22.0923C20.0528 73.7825 18.0974 72.9714 16.6553 71.5292C15.2132 70.0871 14.4021 68.1317 14.4 66.0922V43.0153C14.4021 40.9758 15.2132 39.0204 16.6553 37.5783C18.0974 36.1361 20.0528 35.325 22.0923 35.323H41.3231V16.0922C41.3251 14.0527 42.1362 12.0973 43.5784 10.6552C45.0205 9.21303 46.9759 8.40194 49.0154 8.3999H72.0923C74.1318 8.40194 76.0872 9.21303 77.5294 10.6552C78.9715 12.0973 79.7826 14.0527 79.7846 16.0922V35.323H99.0154C101.055 35.325 103.01 36.1361 104.452 37.5783C105.895 39.0204 106.706 40.9758 106.708 43.0153V66.0922C106.705 68.1314 105.893 70.0862 104.451 71.5281C103.009 72.9701 101.055 73.7815 99.0154 73.7845H79.7846V93.0153C79.7816 95.0545 78.9702 97.0093 77.5282 98.4512C76.0863 99.8931 74.1315 100.705 72.0923 100.708ZM22.0923 43.0153V66.0922H49.0154V93.0153H72.0923V66.0922H99.0154V43.0153H72.0923V16.0922H49.0154V43.0153H22.0923Z" fill="white" fill-opacity="0.05"/>
</g>
</svg>
